<svg width="101" height="101" viewBox="0 0 101 101" fill="none" xmlns="http://www.w3.org/2000/svg">
<path fill-rule="evenodd" clip-rule="evenodd" d="M48.7552 86.0583C46.441 83.7908 45.0052 80.6301 45.0052 77.1339C45.0052 70.2336 50.599 64.6398 57.4993 64.6398H64.6388V57.5003C64.6388 51.8907 68.3357 47.1446 73.4261 45.5653V15.6833C73.4261 9.20541 68.0129 3.9541 61.3356 3.9541H27.8741C26.0291 3.9541 24.2557 4.66834 22.9258 5.9471L6.14429 22.0823C4.74432 23.4284 3.95312 25.2868 3.95312 27.2288V74.3288C3.95312 80.8072 9.36615 86.0583 16.0434 86.0583H48.7552Z" fill="#FFDFD2"/>
<path d="M36.6641 21.127V31.807" stroke="#FF4E08" stroke-width="2.30661" stroke-linecap="round" stroke-linejoin="round"/>
<path d="M54.1992 21.1265V31.8065" stroke="#FF4E08" stroke-width="2.30661" stroke-linecap="round" stroke-linejoin="round"/>
<path d="M77.1328 57.5005V96.7677" stroke="#FF4E08" stroke-width="2.30661" stroke-linecap="round" stroke-linejoin="round"/>
<path d="M57.5 77.1338H96.7672" stroke="#FF4E08" stroke-width="2.30661" stroke-linecap="round" stroke-linejoin="round"/>
<path d="M73.4261 43.2213V15.6833C73.4261 9.20541 68.0128 3.9541 61.3356 3.9541H27.8741C26.0291 3.9541 24.2557 4.66834 22.9258 5.9471L6.14429 22.0823C4.74432 23.4284 3.95312 25.2868 3.95312 27.2289V74.3288C3.95312 80.8072 9.36611 86.0583 16.0435 86.0583H44.7821" stroke="#FF4E08" stroke-width="2.30661" stroke-linecap="round" stroke-linejoin="round"/>
</svg>
