<svg width="100" height="136" viewBox="0 0 100 136" fill="none" xmlns="http://www.w3.org/2000/svg">
<path d="M39.3657 32.2788C35.4509 32.2788 32.2773 35.4524 32.2773 39.3671V60.6321C32.2773 64.5469 35.4509 67.7205 39.3657 67.7205H60.6307C64.5454 67.7205 67.719 64.5469 67.719 60.6321V39.3671C67.719 35.4524 64.5454 32.2788 60.6307 32.2788H39.3657Z" fill="#FFDFD2"/>
<path d="M67.7196 18.1022V14.5581C67.7196 12.6781 66.9727 10.8752 65.6435 9.54583C64.3141 8.21655 62.5112 7.46973 60.6312 7.46973H14.5571C12.6771 7.46973 10.8742 8.21655 9.54485 9.54583C8.21558 10.8752 7.46875 12.6781 7.46875 14.5581V60.6322C7.46875 62.5122 8.21558 64.3151 9.54485 65.6444C10.8742 66.9737 12.6771 67.7205 14.5571 67.7205H18.1012" stroke="#FF4E08" stroke-width="2.29008" stroke-linecap="round" stroke-linejoin="round"/>
<path d="M81.8957 32.2788H85.4398C87.3196 32.2788 89.1229 33.0256 90.452 34.3549C91.781 35.6843 92.5282 37.4872 92.5282 39.3671V85.4413C92.5282 87.3211 91.781 89.1244 90.452 90.4534C89.1229 91.7825 87.3196 92.5296 85.4398 92.5296H39.3657C37.4857 92.5296 35.6828 91.7825 34.3534 90.4534C33.0242 89.1244 32.2773 87.3211 32.2773 85.4413V81.8971" stroke="#FF4E08" stroke-width="2.29008" stroke-linecap="round" stroke-linejoin="round"/>
<path d="M39.3657 32.2788C35.4509 32.2788 32.2773 35.4524 32.2773 39.3671V60.6321C32.2773 64.5469 35.4509 67.7205 39.3657 67.7205H60.6307C64.5454 67.7205 67.719 64.5469 67.719 60.6321V39.3671C67.719 35.4524 64.5454 32.2788 60.6307 32.2788H39.3657Z" stroke="#FF4E08" stroke-width="2.29008" stroke-linecap="round" stroke-linejoin="round"/>
</svg>
