<svg width="101" height="136" viewBox="0 0 101 136" fill="none" xmlns="http://www.w3.org/2000/svg">
<path d="M61.0697 32.5122H39.6512C35.7082 32.5122 32.5117 35.7087 32.5117 39.6517V61.0702C32.5117 65.0132 35.7082 68.2097 39.6512 68.2097H61.0697C65.0127 68.2097 68.2092 65.0133 68.2092 61.0702V39.6517C68.2092 35.7087 65.0128 32.5122 61.0697 32.5122Z" fill="#FFDFD2"/>
<path d="M61.0697 32.5122H39.6512C35.7082 32.5122 32.5117 35.7087 32.5117 39.6517V61.0702C32.5117 65.0132 35.7082 68.2097 39.6512 68.2097H61.0697C65.0127 68.2097 68.2092 65.0133 68.2092 61.0702V39.6517C68.2092 35.7087 65.0128 32.5122 61.0697 32.5122Z" stroke="#FF4E08" stroke-width="2.30661" stroke-linecap="round" stroke-linejoin="round"/>
<path d="M75.3477 11.0938H89.6266C91.52 11.0938 93.3363 11.846 94.675 13.1848C96.0136 14.5238 96.7661 16.3397 96.7661 18.2332V32.5122" stroke="#FF4E08" stroke-width="2.30661" stroke-linecap="round" stroke-linejoin="round"/>
<path d="M3.95312 32.5122V18.2332C3.95312 16.3397 4.70532 14.5238 6.04423 13.1848C7.38315 11.846 9.19908 11.0938 11.0926 11.0938H25.3716" stroke="#FF4E08" stroke-width="2.30661" stroke-linecap="round" stroke-linejoin="round"/>
<path d="M75.3477 89.6284H89.6266C91.52 89.6284 93.3363 88.8759 94.675 87.5373C96.0136 86.1986 96.7661 84.3823 96.7661 82.489V68.21" stroke="#FF4E08" stroke-width="2.30661" stroke-linecap="round" stroke-linejoin="round"/>
<path d="M3.95312 68.21V82.489C3.95312 84.3823 4.70532 86.1986 6.04423 87.5373C7.38315 88.8759 9.19908 89.6284 11.0926 89.6284H25.3716" stroke="#FF4E08" stroke-width="2.30661" stroke-linecap="round" stroke-linejoin="round"/>
</svg>
