<svg width="100" height="136" viewBox="0 0 100 136" fill="none" xmlns="http://www.w3.org/2000/svg">
<path d="M14.5586 50.0003C14.5586 59.4 18.2926 68.4147 24.9392 75.0613C31.5858 81.7079 40.6005 85.4419 50.0003 85.4419C59.4 85.4419 68.4147 81.7079 75.0613 75.0613C81.7079 68.4147 85.4419 59.4 85.4419 50.0003C85.4419 40.6005 81.7079 31.5858 75.0613 24.9392C68.4147 18.2926 59.4 14.5586 50.0003 14.5586C40.6005 14.5586 31.5858 18.2926 24.9392 24.9392C18.2926 31.5858 14.5586 40.6005 14.5586 50.0003Z" fill="#FFDFD2"/>
<path d="M41.0117 84.3013C43.941 85.0583 46.9609 85.4432 49.9999 85.4418C55.9392 85.4461 61.7843 83.9568 66.998 81.1122C72.2118 78.2677 76.6271 74.1579 79.8381 69.1615C83.0491 64.165 84.9531 58.4416 85.3748 52.5174C85.6513 48.6342 85.2848 44.7463 84.3045 41.0073" stroke="#FF4E08" stroke-width="2.29008" stroke-linecap="round" stroke-linejoin="round"/>
<path d="M21.647 71.2652C16.5281 64.4402 14.043 55.9977 14.6478 47.4878C15.2526 38.9779 18.9067 30.9718 24.9392 24.9392C30.9718 18.9067 38.9779 15.2526 47.4878 14.6478C55.9977 14.043 64.4402 16.5281 71.2652 21.647" stroke="#FF4E08" stroke-width="2.29008" stroke-linecap="round" stroke-linejoin="round"/>
<path d="M58.9689 15.7119C74.6595 5.03699 88.2762 0.880262 93.6981 6.30201C101.743 14.3466 88.6994 40.4322 64.5659 64.5659C40.4322 88.6994 14.3466 101.743 6.30201 93.6981C0.880262 88.2762 5.03699 74.6595 15.7119 58.9689" stroke="#FF4E08" stroke-width="2.29008" stroke-linecap="round" stroke-linejoin="round"/>
</svg>
